<svg width="22" height="30" viewBox="0 0 22 30" fill="none" xmlns="http://www.w3.org/2000/svg">
<path d="M11.0009 0C4.92526 0 0 4.95691 0 11.0707C0 11.1234 0 11.177 0 11.2298C0.00171821 11.3292 0.00429553 11.4278 0.00859107 11.5264C0.326461 21.5612 11 30 11 30C11 30 21.6735 21.5612 21.9914 11.5264C21.9957 11.4278 21.9983 11.3292 22 11.2298C22 11.177 22 11.1234 22 11.0707C22.0017 4.95691 17.0765 0 11.0009 0ZM11.0009 17.558C7.44072 17.558 4.55498 14.6529 4.55498 11.0707C4.55498 7.48854 7.44158 4.58426 11.0009 4.58426C14.5601 4.58426 17.4467 7.48941 17.4467 11.0707C17.4467 14.652 14.5601 17.558 11.0009 17.558Z" fill="#0D38A3"/>
</svg>
